<?xml version="1.0" encoding="UTF-8" standalone="no"?>
<!-- Created with Inkscape (http://www.inkscape.org/) -->

<svg
   width="148mm"
   height="210mm"
   viewBox="0 0 148 210"
   version="1.1"
   id="svg1"
   inkscape:version="1.3-dev (38535c23, 2022-11-14)"
   sodipodi:docname="desenhoSimples2.svg"
   xmlns:inkscape="http://www.inkscape.org/namespaces/inkscape"
   xmlns:sodipodi="http://sodipodi.sourceforge.net/DTD/sodipodi-0.dtd"
   xmlns="http://www.w3.org/2000/svg"
   xmlns:svg="http://www.w3.org/2000/svg">
  <sodipodi:namedview
     id="namedview1"
     pagecolor="#363636"
     bordercolor="#000000"
     borderopacity="0.25"
     inkscape:showpageshadow="2"
     inkscape:pageopacity="0.0"
     inkscape:pagecheckerboard="0"
     inkscape:deskcolor="#353535"
     inkscape:document-units="mm"
     inkscape:zoom="0.84096521"
     inkscape:cx="309.16856"
     inkscape:cy="389.43347"
     inkscape:window-width="1440"
     inkscape:window-height="837"
     inkscape:window-x="-8"
     inkscape:window-y="-8"
     inkscape:window-maximized="1"
     inkscape:current-layer="svg1"
     showgrid="false" />
  <defs
     id="defs1">
    <filter
       inkscape:label="Invert"
       inkscape:menu="Shadows and Glows"
       inkscape:menu-tooltip="Darkens the edge with an inner blur and adds a flexible glow"
       style="color-interpolation-filters:sRGB;"
       id="filter33"
       x="-0.21318731"
       y="-0.31325508"
       width="1.4263746"
       height="1.6265102">
      <feGaussianBlur
         result="result6"
         stdDeviation="6.551803"
         in="SourceGraphic"
         id="feGaussianBlur33" />
      <feColorMatrix
         values="1 0 0 0 0 0 1 0 0 0 0 0 1 0 0 0 0 0 1 0 "
         result="result7"
         in="SourceGraphic"
         id="feColorMatrix33" />
      <feComposite
         operator="in"
         in="result6"
         in2="result7"
         id="feComposite33"
         result="fbSourceGraphic" />
      <feColorMatrix
         result="fbSourceGraphicAlpha"
         in="fbSourceGraphic"
         values="0 0 0 -1 0 0 0 0 -1 0 0 0 0 -1 0 0 0 0 1 0"
         id="feColorMatrix34" />
      <feGaussianBlur
         id="feGaussianBlur34"
         stdDeviation="5"
         result="result6"
         in="fbSourceGraphic" />
      <feComposite
         id="feComposite34"
         result="result8"
         in="fbSourceGraphic"
         operator="atop"
         in2="result6" />
      <feComposite
         id="feComposite35"
         result="result9"
         operator="over"
         in2="fbSourceGraphicAlpha"
         in="result8" />
      <feColorMatrix
         id="feColorMatrix35"
         values="1 0 0 0 0 0 1 0 0 0 0 0 1 0 0 0 0 0 1 0 "
         result="result10" />
      <feBlend
         id="feBlend35"
         in="result10"
         mode="normal"
         in2="result6"
         result="fbSourceGraphic" />
      <feColorMatrix
         result="fbSourceGraphicAlpha"
         in="fbSourceGraphic"
         values="0 0 0 -1 0 0 0 0 -1 0 0 0 0 -1 0 0 0 0 1 0"
         id="feColorMatrix88" />
      <feColorMatrix
         id="feColorMatrix89"
         values="-1 0 0 0 1 0 -1 0 0 1 0 0 -1 0 1 0.21 0.72 0.07 1 0 "
         result="color2"
         in="fbSourceGraphic" />
    </filter>
    <filter
       style="color-interpolation-filters:sRGB;"
       inkscape:label="Invert"
       id="filter90"
       x="0"
       y="0"
       width="1"
       height="1">
      <feColorMatrix
         values="-1 0 0 0 1 0 -1 0 0 1 0 0 -1 0 1 0.21 0.72 0.07 1 0 "
         result="color2"
         id="feColorMatrix90" />
    </filter>
    <filter
       style="color-interpolation-filters:sRGB;"
       inkscape:label="Invert"
       id="filter91"
       x="0"
       y="0"
       width="1"
       height="1">
      <feColorMatrix
         values="-1 0 0 0 1 0 -1 0 0 1 0 0 -1 0 1 0.21 0.72 0.07 1 0 "
         result="color2"
         id="feColorMatrix91" />
    </filter>
    <filter
       style="color-interpolation-filters:sRGB;"
       inkscape:label="Invert"
       id="filter92"
       x="0"
       y="0"
       width="1"
       height="1">
      <feColorMatrix
         values="-1 0 0 0 1 0 -1 0 0 1 0 0 -1 0 1 0.21 0.72 0.07 1 0 "
         result="color2"
         id="feColorMatrix92" />
    </filter>
    <filter
       style="color-interpolation-filters:sRGB;"
       inkscape:label="Invert"
       id="filter93"
       x="0"
       y="0"
       width="1"
       height="1">
      <feColorMatrix
         values="-1 0 0 0 1 0 -1 0 0 1 0 0 -1 0 1 0.21 0.72 0.07 1 0 "
         result="color2"
         id="feColorMatrix93" />
    </filter>
    <filter
       style="color-interpolation-filters:sRGB;"
       inkscape:label="Invert"
       id="filter94"
       x="0"
       y="0"
       width="1"
       height="1">
      <feColorMatrix
         values="-1 0 0 0 1 0 -1 0 0 1 0 0 -1 0 1 0.21 0.72 0.07 1 0 "
         result="color2"
         id="feColorMatrix94" />
    </filter>
    <filter
       style="color-interpolation-filters:sRGB;"
       inkscape:label="Invert"
       id="filter95"
       x="0"
       y="0"
       width="1"
       height="1">
      <feColorMatrix
         values="-1 0 0 0 1 0 -1 0 0 1 0 0 -1 0 1 0.21 0.72 0.07 1 0 "
         result="color2"
         id="feColorMatrix95" />
    </filter>
    <filter
       style="color-interpolation-filters:sRGB;"
       inkscape:label="Invert"
       id="filter96"
       x="-0.044121923"
       y="-0.044121923"
       width="1.0882438"
       height="1.0882438">
      <feColorMatrix
         values="-1 0 0 0 1 0 -1 0 0 1 0 0 -1 0 1 0.21 0.72 0.07 1 0 "
         result="color2"
         id="feColorMatrix96" />
    </filter>
    <filter
       style="color-interpolation-filters:sRGB;"
       inkscape:label="Invert"
       id="filter97"
       x="-3.9194883"
       y="-0.0037621953"
       width="8.8337803"
       height="1.005436">
      <feColorMatrix
         values="-1 0 0 0 1 0 -1 0 0 1 0 0 -1 0 1 0.21 0.72 0.07 1 0 "
         result="color2"
         id="feColorMatrix97" />
    </filter>
    <filter
       style="color-interpolation-filters:sRGB;"
       inkscape:label="Invert"
       id="filter98"
       x="0"
       y="0"
       width="1"
       height="1">
      <feColorMatrix
         values="-1 0 0 0 1 0 -1 0 0 1 0 0 -1 0 1 0.21 0.72 0.07 1 0 "
         result="color2"
         id="feColorMatrix98" />
    </filter>
    <filter
       style="color-interpolation-filters:sRGB;"
       inkscape:label="Invert"
       id="filter99"
       x="0"
       y="0"
       width="1"
       height="1">
      <feColorMatrix
         values="-1 0 0 0 1 0 -1 0 0 1 0 0 -1 0 1 0.21 0.72 0.07 1 0 "
         result="color2"
         id="feColorMatrix99" />
    </filter>
    <filter
       style="color-interpolation-filters:sRGB;"
       inkscape:label="Invert"
       id="filter100"
       x="0"
       y="0"
       width="1"
       height="1">
      <feColorMatrix
         values="-1 0 0 0 1 0 -1 0 0 1 0 0 -1 0 1 0.21 0.72 0.07 1 0 "
         result="color2"
         id="feColorMatrix100" />
    </filter>
    <filter
       style="color-interpolation-filters:sRGB;"
       inkscape:label="Invert"
       id="filter101"
       x="0"
       y="0"
       width="1"
       height="1">
      <feColorMatrix
         values="-1 0 0 0 1 0 -1 0 0 1 0 0 -1 0 1 0.21 0.72 0.07 1 0 "
         result="color2"
         id="feColorMatrix101" />
    </filter>
  </defs>
  <g
     inkscape:label="posteSombra"
     id="g1"
     style="opacity:0.61827957;mix-blend-mode:saturation;fill:#000000;fill-opacity:1;filter:url(#filter33)"
     transform="matrix(1.064686,0,0,1.1715545,-12.015576,-29.627666)">
    <path
       id="path1"
       style="fill:#000000;fill-opacity:1;stroke-width:0.264583"
       inkscape:label="base"
       d="m 144.16,108.12 -13.915,1.68 -51.7648,4.329 -13.6448,0.691 2.474,-5.281 -13.9731,2.753 0.3436,3.092 -7.5419,0.382 3.9358,1.059 3.7592,-0.065 0.0083,0.076 -12.641,41.829 -3.9511,13.599 -6.2893,19.893 -8.1773,0.072 -8.6694,-1.482 1.9904,5.877 23.0279,-0.524 17.9517,-0.782 2.5981,-2.794 1.231,-1.864 3.1206,-2.816 -4.1784,0.345 -12.7564,2.899 -7.982,0.998 -2.0369,0.018 12.7164,-34.122 7.8287,-22.523 4.6409,-3.817 11.8542,-8.872 4.774,-4.127 7.3273,-2.403 6.5109,1.059 0.2488,2.072 3.0734,-2.408 0.3668,-0.929 5.3504,-0.092 35.623,-0.576 z m -65.6614,8.219 -3.8801,0.906 -15.1853,13.009 4.7519,-13.67 z" />
  </g>
  <g
     inkscape:label="poste"
     id="layer1"
     transform="matrix(0.87362403,0,0,1.0957494,-17.302766,-14.664308)"
     style="filter:url(#filter90)">
    <path
       id="base"
       style="fill:#000000;stroke-width:0.264583"
       inkscape:label="base"
       d="m 138.43238,27.686682 -15.73134,3.146061 -59.14833,8.179863 -15.6962,1.330151 0.594796,-9.510014 -15.10192,5.033802 1.711006,5.560384 -8.632548,0.731738 5.033802,1.88774 4.363041,-0.136426 0.04186,0.136426 3.146061,78.025733 1.258838,26.42784 1.258321,39.64202 H 31.461646 l -11.325924,-3.14606 5.033801,11.95535 28.315584,-0.62942 22.023462,-1.25832 1.88774,-5.66322 0.628903,-3.77548 2.517159,-5.66322 -5.033802,0.62941 -14.472501,5.66322 -9.438701,1.88774 h -2.516642 v -67.32819 l -0.671277,-42.62065 3.817338,-7.08949 10.067603,-16.360241 3.77548,-7.550444 7.55096,-4.404899 8.179863,1.88774 1.258838,3.77548 2.516642,-4.404899 v -1.690853 l 6.292639,-0.196887 42.158669,-1.258321 z M 64.566602,43.011845 60.406649,44.675826 48.257003,68.541036 47.863228,43.533777 Z" />
  </g>
  <g
     id="layer2"
     inkscape:label="personagem"
     transform="translate(-25.806401,-8.4538211)">
    <path
       style="fill:#000000;fill-opacity:1;fill-rule:nonzero;stroke:none;stroke-width:3.165;stroke-linejoin:bevel;stroke-dasharray:none;stroke-opacity:1;paint-order:normal;filter:url(#filter91)"
       d="m 109.23227,129.47694 -5.33926,-0.44493 1.33482,8.23135 4.00444,16.68517 3.33703,11.12345 0.22247,1.33481 6.89654,-3.11456 -5.33926,-10.45605 -3.33703,-13.34813 z"
       id="pernaRight"
       inkscape:label="pernaRight" />
    <path
       style="fill:#000000;fill-opacity:1;fill-rule:nonzero;stroke:none;stroke-width:3.165;stroke-linejoin:bevel;stroke-dasharray:none;stroke-opacity:1;paint-order:normal;filter:url(#filter92)"
       d="m 102.11326,129.92188 -11.568386,20.68962 -7.341479,6.4516 7.786415,6.67407 4.894318,-10.01111 6.674072,-14.90542 3.11456,-8.67629 z"
       id="pernaLeft"
       inkscape:label="pernaLeft" />
    <path
       style="fill:#000000;fill-opacity:1;fill-rule:nonzero;stroke:none;stroke-width:3.165;stroke-linejoin:bevel;stroke-dasharray:none;stroke-opacity:1;paint-order:normal;filter:url(#filter93)"
       d="m 103.2256,95.439189 0.66741,9.121231 0.66741,11.34592 -1.77976,10.0111 -2.00221,5.11678 9.12122,1.55729 -0.44494,-5.56172 -0.22246,-17.13012 -1.55729,-14.015542 z"
       id="tronco"
       inkscape:label="tronco" />
    <path
       style="fill:#ffffff;display:none;stroke-width:11.5555;stroke-linejoin:bevel"
       d="m 105.73841,96.616031 19.34992,41.070439 c -11.56737,-3.13139 -23.37764,-7.27689 -33.149348,-8.44311 -3.107973,-0.37093 -3.794059,0.54545 -6.826424,-0.067"
       id="path3"
       inkscape:label="tronco2" />
    <path
       style="fill:#000000;fill-opacity:1;fill-rule:nonzero;stroke:none;stroke-width:3.165;stroke-linejoin:bevel;stroke-dasharray:none;stroke-opacity:1;paint-order:normal;filter:url(#filter94)"
       d="m 106.78511,95.884128 7.34147,8.898762 16.24024,11.56838 6.22913,3.11457 -7.11901,4.00444 -8.23135,-7.11901 -10.23357,-9.78863 -4.44938,-6.896539 z"
       id="bracoRight"
       inkscape:label="bracoRight" />
    <path
       style="fill:#000000;fill-opacity:1;fill-rule:evenodd;stroke:none;stroke-width:3.165;stroke-linejoin:bevel;stroke-dasharray:none;stroke-opacity:1;paint-order:normal;filter:url(#filter95)"
       d="M 105.45029,94.771783 C 84.983147,110.78955 84.983147,110.78955 84.983147,110.78955 l -13.348136,2.66963 8.008881,10.23357 10.233573,-8.00888 15.127895,-16.017769 z"
       id="bracoLeft"
       inkscape:label="bracoLeft" />
    <circle
       style="fill:#000000;fill-opacity:0;stroke:#000000;stroke-width:3.165;stroke-dasharray:none;stroke-opacity:1;filter:url(#filter96)"
       id="cabeca"
       cx="106.65572"
       cy="77.710808"
       r="17.933262"
       inkscape:label="cabeca" />
    <path
       style="fill:#000000;fill-opacity:0;stroke:#000000;stroke-width:3.165;stroke-dasharray:none;stroke-opacity:1;filter:url(#filter97)"
       d="m 107.17372,37.751443 c -0.41949,7.94412 -0.48889,14.754477 -0.31462,22.180613"
       id="corda"
       sodipodi:nodetypes="cc"
       inkscape:label="corda" />
    <ellipse
       style="fill:#000000;fill-opacity:1;fill-rule:nonzero;stroke:none;stroke-width:3.165;stroke-linejoin:bevel;stroke-dasharray:none;stroke-opacity:1;paint-order:normal;filter:url(#filter98)"
       id="olhoLeft"
       cx="102.16888"
       cy="74.582718"
       rx="2.2803071"
       ry="4.1712933"
       inkscape:label="olhoLeft" />
    <ellipse
       style="fill:#000000;fill-opacity:1;fill-rule:nonzero;stroke:none;stroke-width:3.165;stroke-linejoin:bevel;stroke-dasharray:none;stroke-opacity:1;paint-order:normal;filter:url(#filter99)"
       id="olhoRight"
       cx="111.67943"
       cy="74.638344"
       rx="2.2803071"
       ry="4.1712933"
       inkscape:label="olhoRight" />
    <path
       style="fill:#000000;fill-opacity:1;fill-rule:nonzero;stroke:none;stroke-width:3.165;stroke-linejoin:bevel;stroke-dasharray:none;stroke-opacity:1;paint-order:normal;filter:url(#filter100)"
       d="m 103.00313,84.871913 3.78198,-0.111233 3.44827,0.111233 2.33592,0.333704 -1.33481,1.001111 -3.89321,-0.667408 h -4.33815 z"
       id="boca"
       inkscape:label="boca" />
    <path
       style="display:none;opacity:1;fill:#ffffff;fill-opacity:1;stroke-width:3.165;stroke-linejoin:bevel"
       d="m 106.67387,85.038765 c 0.25796,0.79134 0.22247,1.621425 0.22247,2.44716 0,0.161595 0.067,0.477708 0,0.611788 -0.079,0.15806 -0.0181,0.258766 -0.0556,0.333704 -10e-4,0.0021 -0.13139,-0.02016 -0.0556,0.05562 0.0524,0.05244 0.15212,-0.02344 0.22247,0 0.0634,0.02114 0.10541,0.0849 0.16685,0.111233 0.0996,0.0427 0.47395,0.08463 0.55617,0.166852 0.0293,0.02931 0.0263,0.08192 0.0556,0.111236 0.0414,0.04145 0.12539,0.01416 0.16685,0.05562 0.0131,0.0131 -0.0103,0.04019 0,0.05562 -0.13724,0.168381 0.15128,0.09567 0.16685,0.111236 0.0293,0.02931 0.0263,0.08192 0.0556,0.111234 0.074,0.07398 0.22584,0.06237 0.27809,0.166851 0.008,0.01659 -0.0131,0.04251 0,0.05562 0.0246,0.02461 0.2373,0.126066 0.27808,0.166852 0.0262,0.02622 -0.0262,0.08502 0,0.111233 0.0131,0.01312 0.039,-0.0083 0.0556,0 0.0745,0.03725 0.0771,0.132684 0.11123,0.166852 0.0262,0.02622 0.0742,0 0.11124,0 0.11123,0 0.22302,0.01106 0.3337,0 0.0761,-0.0076 0.1561,-0.0177 0.22247,-0.05562 0.0683,-0.03902 0.10643,-0.116499 0.16685,-0.166852 0.58041,-0.483672 -0.11228,0.08394 0.27809,-0.111236 0.0166,-0.0083 -0.0154,-0.04533 0,-0.05562 0.40878,-0.136261 0.0283,0.0182 0.22247,-0.111234 0.12023,-0.08015 0.21408,-0.01574 0.3337,-0.05562 0.0185,-0.0062 0.20959,-0.09835 0.22247,-0.111233 0.0131,-0.01312 -0.0166,-0.04733 0,-0.05562 0.0332,-0.01659 0.0753,0.009 0.11123,0 0.26858,-0.06714 -0.003,-0.02643 0.16686,-0.111234 0.0166,-0.0083 0.0473,0.01659 0.0556,0 0.0166,-0.03316 -0.0206,-0.08038 0,-0.111233 0.046,-0.06898 0.16385,-0.05261 0.22247,-0.111236 0.0131,-0.0131 -0.0131,-0.04251 0,-0.05562 0.0262,-0.02622 0.085,0.02622 0.11124,0 0.0288,-0.02879 0.0268,-0.193681 0.0556,-0.222467 0.0293,-0.02931 0.0819,-0.0263 0.11124,-0.05562 0.0799,-0.07988 -0.0792,-1.088795 0,-1.167961 0.0293,-0.02931 0.0819,-0.0263 0.11123,-0.05562 0.0421,-0.04212 -0.0321,-0.22987 0,-0.278088 0.023,-0.03449 0.0819,-0.0263 0.11124,-0.05561 0.0323,-0.03232 0.0323,-0.175731 0.0556,-0.22247 0.0235,-0.0469 0.0878,-0.06433 0.11124,-0.111233 0.0249,-0.04975 -0.0176,-0.114091 0,-0.166855 -0.0285,-0.124343 0.0981,-0.0163 0.11123,-0.05562 0.15815,-0.474443 -0.16762,0.05639 0.11124,-0.22247 0.0257,-0.02572 -0.0168,-0.13327 0,-0.166851 0.0185,-0.03708 0.0927,-0.01855 0.11123,-0.05562 0.0231,-0.04613 0.098,-0.791877 0.0556,-0.834258 -0.003,-0.0033 -1.26104,0.03746 -1.2792,0.05562 -0.0895,0.08952 0.0502,0.430655 0,0.55617 -0.0248,0.06206 -0.0929,0.102582 -0.11123,0.166854 -0.0518,0.181296 0.085,0.497301 0,0.667407 -0.0423,0.08451 -0.13737,0.134024 -0.16685,0.222469 -0.0234,0.07035 0.0332,0.156141 0,0.222467 -0.008,0.01659 -0.0371,0 -0.0556,0 -0.0186,0.05562 -0.0441,0.109366 -0.0556,0.166852 -0.0323,0.161488 -0.0137,0.521078 -0.11123,0.667408 -0.0269,0.04035 -0.15985,0.257213 -0.22247,0.278085 -0.0352,0.01172 -0.0742,0 -0.11124,0 -0.0556,0.01855 -0.11296,0.03253 -0.16685,0.05562 -0.11431,0.04899 -0.21572,0.127523 -0.3337,0.166851 -0.0644,0.02148 -0.15776,-0.01617 -0.22247,0 -0.2561,0.06402 -0.67287,0.123772 -0.94549,0.05562 -0.10174,-0.02543 -0.16852,-0.132543 -0.22247,-0.222469 -0.0191,-0.0318 0.009,-0.07526 0,-0.111234 -0.0355,-0.141864 -0.18048,-0.263342 -0.22247,-0.389321 -0.027,-0.0809 0.0316,-0.198983 0,-0.278088 -0.057,-0.14252 -0.1202,-0.19373 -0.16685,-0.333703 -0.0389,-0.116795 0.0389,-0.272523 0,-0.389321 -0.0805,-0.241469 -0.0556,0.03821 -0.0556,-0.278085 0,-0.23545 -0.066,-1.213197 0.0556,-1.334815 0.0669,-0.06688 0.44928,0 0.55617,0 0.12134,0 0.57842,-0.04449 0.66741,0 0.0497,0.02487 -0.0176,0.114088 0,0.166852 0.008,0.02487 0.0473,0.03074 0.0556,0.05562 0.0572,0.171455 -0.0713,0.818557 0,0.889875 0.12782,0.127818 0.11124,-0.01442 0.11124,0.111234 0,0.144656 -0.0626,0.486585 0,0.611791 0.0484,0.09674 0.33519,0.06464 0.38932,0.05562 0.27768,-0.04628 0.15817,-0.337775 0.22247,-0.444939 0.0344,-0.05732 0.12674,-0.05776 0.16685,-0.111234 0.0334,-0.04449 -0.0393,-0.127524 0,-0.166852 0.0293,-0.02931 0.0882,-0.02111 0.11123,-0.05562 0.0733,-0.109873 -0.0732,-0.816662 0,-0.889875 0.0632,-0.06323 0.82629,0.06359 0.88988,0 0.0131,-0.01312 -0.0131,-0.04251 0,-0.05562 0.0131,-0.0131 0.0556,0.01855 0.0556,0 0,-0.171323 -0.74884,-0.222467 -0.88988,-0.222467 -0.4551,0 -0.90828,0.03094 -1.33481,-0.111236 -0.0352,-0.01172 -0.0804,0.02056 -0.11124,0 -0.0436,-0.02909 -0.0643,-0.08778 -0.11123,-0.111234 -0.0817,-0.04087 -1.17283,0 -1.2792,0 -0.14826,0 -0.68212,-0.04826 -0.77864,0 -0.0166,0.0083 0.004,0.03744 0,0.05562 -0.015,0.07496 -0.0371,0.148315 -0.0556,0.22247 z"
       id="boca2"
       inkscape:label="boca2" />
    <path
       id="olhoLeft2"
       style="display:none;opacity:1;fill:#ffffff;fill-opacity:1;stroke-width:3.165;stroke-linejoin:bevel"
       d="m 98.588723,72.175746 2.090577,2.742398 -2.299782,1.753162 1.416066,1.85758 2.299786,-1.753164 1.8885,2.477315 2.03471,-1.551097 -1.88851,-2.477318 2.12307,-1.618449 -1.41607,-1.857578 -2.12306,1.618448 -2.09058,-2.742388 z"
       inkscape:label="olhoLeft2" />
    <path
       id="olhoRight2"
       style="display:none;fill:#ffffff;fill-opacity:1;stroke-width:3.165;stroke-linejoin:bevel"
       d="m 115.36644,77.659145 -2.10551,-2.730949 2.29018,-1.765685 -1.42618,-1.849825 -2.29019,1.765688 -1.90199,-2.466973 -2.02621,1.562177 1.902,2.466976 -2.11421,1.63001 1.42619,1.849823 2.11419,-1.630009 2.10552,2.730939 z"
       inkscape:label="olhoRight2" />
  </g>
  <path
     style="fill:none;stroke-width:3.165;stroke-linejoin:bevel;fill-opacity:1;filter:url(#filter101)"
     d="m 12.013325,196.66257 31.590595,-88.98759 100.55597,0.44494 -37.37478,87.65278 z"
     id="path2" />
</svg>
