<?xml version="1.0" encoding="UTF-8" standalone="no"?>
<svg
   width="94"
   height="94"
   version="1.1"
   id="svg12"
   sodipodi:docname="erro1.svg"
   inkscape:version="1.1-dev (d4ee633, 2020-12-23)"
   xmlns:inkscape="http://www.inkscape.org/namespaces/inkscape"
   xmlns:sodipodi="http://sodipodi.sourceforge.net/DTD/sodipodi-0.dtd"
   xmlns="http://www.w3.org/2000/svg"
   xmlns:svg="http://www.w3.org/2000/svg">
  <defs
     id="defs16" />
  <sodipodi:namedview
     id="namedview14"
     pagecolor="#505050"
     bordercolor="#eeeeee"
     borderopacity="1"
     objecttolerance="10.0"
     gridtolerance="10.0"
     guidetolerance="10.0"
     inkscape:pageshadow="0"
     inkscape:pageopacity="0"
     inkscape:pagecheckerboard="0"
     showgrid="false"
     inkscape:zoom="4.1824614"
     inkscape:cx="36.93997"
     inkscape:cy="49.970575"
     inkscape:window-width="1440"
     inkscape:window-height="848"
     inkscape:window-x="-8"
     inkscape:window-y="-8"
     inkscape:window-maximized="1"
     inkscape:current-layer="svg12" />
  <path
     id="path1243"
     style="opacity:1;fill:#5588f8;fill-opacity:1;fill-rule:evenodd;stroke:#0000ff;stroke-width:0;stroke-linecap:round;stroke-linejoin:round;paint-order:markers fill stroke"
     d="M 46.525391 0.484375 A 46.539146 46.539146 0 0 0 0.61914062 47.648438 A 46.539146 46.539146 0 0 0 47.783203 93.554688 A 46.539146 46.539146 0 0 0 93.689453 46.390625 A 46.539146 46.539146 0 0 0 46.525391 0.484375 z M 46.835938 6.4238281 A 40.375 41.5 89.22646 0 1 88.878906 46.236328 A 40.375 41.5 89.22646 0 1 47.927734 87.167969 A 40.375 41.5 89.22646 0 1 5.8847656 47.355469 A 40.375 41.5 89.22646 0 1 46.835938 6.4238281 z M 65.408203 11.097656 L 44.890625 35.916016 L 21.605469 16.214844 L 14.302734 25.048828 L 37.587891 44.748047 L 16.375 70.408203 L 28.433594 80.609375 L 49.646484 54.951172 L 74.179688 75.707031 L 81.482422 66.873047 L 56.949219 46.117188 L 77.466797 21.300781 L 65.408203 11.097656 z " />
</svg>
