<?xml version="1.0" encoding="UTF-8" standalone="no"?>
<svg
   width="94"
   height="94"
   version="1.1"
   id="svg12"
   sodipodi:docname="erro0.svg"
   inkscape:version="1.1-dev (d4ee633, 2020-12-23)"
   xmlns:inkscape="http://www.inkscape.org/namespaces/inkscape"
   xmlns:sodipodi="http://sodipodi.sourceforge.net/DTD/sodipodi-0.dtd"
   xmlns="http://www.w3.org/2000/svg"
   xmlns:svg="http://www.w3.org/2000/svg">
  <defs
     id="defs16" />
  <sodipodi:namedview
     id="namedview14"
     pagecolor="#505050"
     bordercolor="#eeeeee"
     borderopacity="1"
     objecttolerance="10.0"
     gridtolerance="10.0"
     guidetolerance="10.0"
     inkscape:pageshadow="0"
     inkscape:pageopacity="0"
     inkscape:pagecheckerboard="0"
     showgrid="false"
     inkscape:zoom="4"
     inkscape:cx="6.375"
     inkscape:cy="54.5"
     inkscape:window-width="1440"
     inkscape:window-height="848"
     inkscape:window-x="-8"
     inkscape:window-y="-8"
     inkscape:window-maximized="1"
     inkscape:current-layer="svg12" />
  <path
     id="path1243"
     style="opacity:0.77419355;fill:#5588f8;fill-opacity:0.53333336;fill-rule:evenodd;stroke:#0000ff;stroke-width:0;stroke-linecap:round;stroke-linejoin:round;paint-order:markers fill stroke"
     d="M 47.154297,0.48046875 A 46.539146,46.539146 0 0 0 0.61523438,47.019531 46.539146,46.539146 0 0 0 47.154297,93.558594 46.539146,46.539146 0 0 0 93.693359,47.019531 46.539146,46.539146 0 0 0 47.154297,0.48046875 Z M 47.375,5.75 A 40.375,41.5 0 0 1 87.75,47.25 40.375,41.5 0 0 1 47.375,88.75 40.375,41.5 0 0 1 7,47.25 40.375,41.5 0 0 1 47.375,5.75 Z" />
</svg>
