<?xml version="1.0" encoding="UTF-8" standalone="no"?>
<svg
   id="Layer_1"
   x="0"
   y="0"
   version="1.1"
   viewBox="0 0 29 29"
   xml:space="preserve"
   sodipodi:docname="music-tune2.svg"
   inkscape:version="1.2.2 (732a01da63, 2022-12-09)"
   xmlns:inkscape="http://www.inkscape.org/namespaces/inkscape"
   xmlns:sodipodi="http://sodipodi.sourceforge.net/DTD/sodipodi-0.dtd"
   xmlns:xlink="http://www.w3.org/1999/xlink"
   xmlns="http://www.w3.org/2000/svg"
   xmlns:svg="http://www.w3.org/2000/svg"><defs
     id="defs8074"><linearGradient
       inkscape:collect="always"
       id="linearGradient8080"><stop
         style="stop-color:#0082fc;stop-opacity:1;"
         offset="0"
         id="stop8076" /><stop
         style="stop-color:#e418ff;stop-opacity:1;"
         offset="1"
         id="stop8078" /></linearGradient><linearGradient
       inkscape:collect="always"
       xlink:href="#linearGradient8080"
       id="linearGradient8082"
       x1="1.4745762"
       y1="0.12288135"
       x2="27.279661"
       y2="28.385593"
       gradientUnits="userSpaceOnUse" /></defs><sodipodi:namedview
     id="namedview8072"
     pagecolor="#ffffff"
     bordercolor="#000000"
     borderopacity="0.25"
     inkscape:showpageshadow="2"
     inkscape:pageopacity="0.0"
     inkscape:pagecheckerboard="0"
     inkscape:deskcolor="#d1d1d1"
     showgrid="false"
     inkscape:zoom="8.137931"
     inkscape:cx="-9.4618644"
     inkscape:cy="14.5"
     inkscape:window-width="1440"
     inkscape:window-height="837"
     inkscape:window-x="-8"
     inkscape:window-y="-8"
     inkscape:window-maximized="1"
     inkscape:current-layer="Layer_1" /><path
     d="M 2.4511719 0.45898438 A 1.05 1.05 0 0 0 1.6972656 0.73828125 A 1.05 1.05 0 0 0 1.6445312 2.2226562 L 9.3457031 10.5 L 9.3457031 21.242188 L 5.828125 21.242188 C 4.171125 21.242188 2.5908281 22.585187 2.2988281 24.242188 C 2.0068281 25.899188 3.1125312 27.242188 4.7695312 27.242188 L 7.7695312 27.242188 C 9.4265313 27.242188 11.006828 25.899188 11.298828 24.242188 C 11.328828 24.072187 11.335891 23.907141 11.337891 23.744141 L 11.345703 23.742188 L 11.345703 12.648438 L 17.964844 19.761719 C 17.636934 20.200034 17.394187 20.701058 17.298828 21.242188 C 17.006828 22.899188 18.112531 24.242187 19.769531 24.242188 L 22.132812 24.242188 L 25.869141 28.257812 A 1.05 1.05 0 0 0 27.353516 28.310547 A 1.05 1.05 0 0 0 27.40625 26.828125 L 24.527344 23.734375 C 25.425203 23.196056 26.115664 22.281583 26.298828 21.242188 C 26.328828 21.072187 26.335891 20.907141 26.337891 20.744141 L 26.345703 20.742188 L 26.345703 4.3632812 A 2 2 0 0 0 24.228516 2.3652344 L 11.228516 3.1308594 A 2 2 0 0 0 9.3457031 5.1269531 L 9.3457031 7.4179688 L 3.1816406 0.79296875 A 1.05 1.05 0 0 0 2.4511719 0.45898438 z M 23.269531 8.3242188 A 1 1 0 0 1 24.345703 9.3222656 L 24.345703 18.242188 L 20.828125 18.242188 C 20.418635 18.242188 20.01462 18.324147 19.632812 18.472656 L 11.511719 9.7441406 A 1 1 0 0 1 12.269531 9.1699219 L 23.269531 8.3242188 z "
     id="path8069"
     style="fill-opacity:1;fill:url(#linearGradient8082)" /></svg>
