<?xml version="1.0" encoding="UTF-8" standalone="no"?>
<svg
   id="Layer_1"
   x="0"
   y="0"
   version="1.1"
   viewBox="0 0 29 29"
   xml:space="preserve"
   sodipodi:docname="music-tune.svg"
   inkscape:version="1.2.2 (732a01da63, 2022-12-09)"
   xmlns:inkscape="http://www.inkscape.org/namespaces/inkscape"
   xmlns:sodipodi="http://sodipodi.sourceforge.net/DTD/sodipodi-0.dtd"
   xmlns:xlink="http://www.w3.org/1999/xlink"
   xmlns="http://www.w3.org/2000/svg"
   xmlns:svg="http://www.w3.org/2000/svg"><defs
     id="defs1"><linearGradient
       inkscape:collect="always"
       id="linearGradient1383"><stop
         style="stop-color:#0082fc;stop-opacity:1;"
         offset="0"
         id="stop1379" /><stop
         style="stop-color:#e418ff;stop-opacity:1;"
         offset="1"
         id="stop1381" /></linearGradient><linearGradient
       inkscape:collect="always"
       xlink:href="#linearGradient1383"
       id="linearGradient1385"
       x1="2.7033899"
       y1="2.5805085"
       x2="26.665255"
       y2="27.15678"
       gradientUnits="userSpaceOnUse" /></defs><sodipodi:namedview
     id="namedview1"
     pagecolor="#ffffff"
     bordercolor="#000000"
     borderopacity="0.25"
     inkscape:showpageshadow="2"
     inkscape:pageopacity="0.0"
     inkscape:pagecheckerboard="0"
     inkscape:deskcolor="#d1d1d1"
     inkscape:zoom="8.137931"
     inkscape:cx="-9.3389831"
     inkscape:cy="14.377119"
     inkscape:window-width="1440"
     inkscape:window-height="837"
     inkscape:window-x="-8"
     inkscape:window-y="-8"
     inkscape:window-maximized="1"
     inkscape:current-layer="Layer_1"
     showgrid="false" /><path
     d="M11.429 2.829a2 2 0 0 0-1.883 1.997V20.94H6.029c-1.657 0-3.237 1.343-3.529 3-.292 1.657.814 3 2.471 3h3c1.657 0 3.237-1.343 3.529-3 .03-.17.036-.335.038-.498l.009-.002V9.866a1 1 0 0 1 .923-.997l11-.846a1 1 0 0 1 1.077.997v8.92h-3.518c-1.657 0-3.237 1.343-3.529 3-.292 1.657.814 3 2.471 3h3c1.657 0 3.237-1.343 3.529-3 .03-.17.036-.335.038-.498l.009-.002V4.061a2 2 0 0 0-2.117-1.997l-13.001.765z"
     id="path1"
     style="fill:url(#linearGradient1385);fill-opacity:1" /></svg>
