<?xml version="1.0" encoding="UTF-8" standalone="no"?>
<svg
   width="92"
   height="92"
   viewBox="0 0 92 92"
   version="1.1"
   id="svg1"
   sodipodi:docname="speakeroff.svg"
   inkscape:version="1.2.2 (732a01da63, 2022-12-09)"
   xmlns:inkscape="http://www.inkscape.org/namespaces/inkscape"
   xmlns:sodipodi="http://sodipodi.sourceforge.net/DTD/sodipodi-0.dtd"
   xmlns:xlink="http://www.w3.org/1999/xlink"
   xmlns="http://www.w3.org/2000/svg"
   xmlns:svg="http://www.w3.org/2000/svg">
  <defs
     id="defs1">
    <linearGradient
       inkscape:collect="always"
       id="linearGradient12963">
      <stop
         style="stop-color:#0082fc;stop-opacity:1;"
         offset="0"
         id="stop12959" />
      <stop
         style="stop-color:#e418ff;stop-opacity:1;"
         offset="1"
         id="stop12961" />
    </linearGradient>
    <clipPath
       clipPathUnits="userSpaceOnUse"
       id="clipPath12709">
      <g
         inkscape:label="Clip"
         id="use12711" />
    </clipPath>
    <linearGradient
       inkscape:collect="always"
       xlink:href="#linearGradient12963"
       id="linearGradient12965"
       x1="7.623569"
       y1="12.891208"
       x2="125.176"
       y2="6.2504406"
       gradientUnits="userSpaceOnUse"
       gradientTransform="matrix(0.89487775,0,0,1.0091097,7.8510033,0.22542412)" />
    <linearGradient
       inkscape:collect="always"
       xlink:href="#linearGradient12963"
       id="linearGradient15871"
       x1="4.6779661"
       y1="6.6271186"
       x2="90.05085"
       y2="86.542374"
       gradientUnits="userSpaceOnUse" />
  </defs>
  <sodipodi:namedview
     id="namedview1"
     pagecolor="#ffffff"
     bordercolor="#000000"
     borderopacity="0.25"
     inkscape:showpageshadow="2"
     inkscape:pageopacity="0.0"
     inkscape:pagecheckerboard="0"
     inkscape:deskcolor="#d1d1d1"
     inkscape:zoom="3.6277652"
     inkscape:cx="-10.75042"
     inkscape:cy="65.053824"
     inkscape:window-width="1440"
     inkscape:window-height="837"
     inkscape:window-x="-8"
     inkscape:window-y="-8"
     inkscape:window-maximized="1"
     inkscape:current-layer="layer2"
     showgrid="false" />
  <g
     inkscape:groupmode="layer"
     id="layer2"
     inkscape:label="Layer 2">
    <path
       id="path4"
       d="M 35.996094,4.0039062 C 35.055665,4.0507812 34.15039,4.4492195 33.400391,5.1992188 L 13.699219,25 H 4 c -2.1999978,0 -4,1.800002 -4,4 v 34 c 0,2.199998 1.8000022,4 4,4 h 9.800781 L 33.5,86.800781 C 34.299999,87.60078 35.300782,88 36.300781,88 c 0.5,0 0.898438,-0.100781 1.398438,-0.300781 C 39.199217,87.099219 40,85.599998 40,84 V 8 C 40,6.4000016 39.199217,4.9007807 37.699219,4.3007812 37.136719,4.0757815 36.560351,3.9757813 35.996094,4.0039062 Z M 75.087891,9.1875 c -1.037499,-0.0625 -2.088673,0.2617195 -2.888672,1.011719 -1.599999,1.399998 -1.798827,4.001564 -0.298828,5.601562 0.1,0.1 6.799222,7.699621 10.199218,19.09961 4.499996,14.899985 1.00077,28.900012 -10.199218,41.5 -1.499999,1.599998 -1.301171,4.09961 0.298828,5.599609 0.799999,0.699999 1.801173,1 2.701172,1 1.099999,0 2.2,-0.400782 3,-1.300781 C 109.40036,46.399254 78.20039,10.7 77.900391,10.5 c -0.75,-0.7999992 -1.775001,-1.2500001 -2.8125,-1.3125 z m -12.59961,7.800781 c -1.037499,-0.0625 -2.088672,0.26172 -2.888672,1.011719 -1.599998,1.499999 -1.798826,3.99922 -0.298828,5.699219 0.799999,0.899999 19.699981,22.501584 0,44.601562 -1.499998,1.599999 -1.30117,4.099611 0.298828,5.59961 0.8,0.699999 1.801173,1 2.701172,1 1.099999,0 2.200001,-0.400783 3,-1.300782 24.399976,-27.299972 0.2,-54.998828 0,-55.298828 -0.749999,-0.799999 -1.775001,-1.25 -2.8125,-1.3125 z M 32,17.699219 V 74.300781 L 18.099609,60.199219 C 17.29961,59.39922 16.50039,59 15.400391,59 H 8 V 33 h 7.400391 c 1.099999,0 1.899219,-0.39922 2.699218,-1.199219 z m 18.375,10.08789 c -1.024999,-0.0625 -2.075001,0.263673 -2.875,1.013672 -1.599998,1.399999 -1.80078,3.899611 -0.300781,5.59961 0.999999,1.199998 9.99999,11.99923 0,23.199218 -1.499999,1.599999 -1.299217,4.099611 0.300781,5.59961 0.799999,0.699999 1.79922,1 2.699219,1 1.099999,0 2.200001,-0.398829 3,-1.298828 11.999988,-13.399987 5.200385,-28.000787 -0.09961,-33.800782 -0.699999,-0.799999 -1.69961,-1.25 -2.724609,-1.3125 z"
       style="display:inline;fill-opacity:1;fill:url(#linearGradient15871)" />
    <rect
       style="fill:url(#linearGradient12965);fill-opacity:1;stroke:#000000;stroke-width:3.05048;stroke-dasharray:none;stroke-opacity:0"
       id="rect12948"
       width="116.45285"
       height="5.7334094"
       x="5.9855475"
       y="-4.1701937"
       transform="matrix(0.6941152,0.71986394,-0.78257087,0.62256151,0,0)"
       ry="0" />
  </g>
</svg>
